HIERARCHY
ROOT Hips
{
	OFFSET 0.000000 83.214638 0.000000
	CHANNELS 6 Xposition Yposition Zposition Xrotation Yrotation Zrotation
	JOINT Pelvis
	{
		OFFSET 0.000000 0.000000 0.000000
		CHANNELS 3 Xrotation Yrotation Zrotation
		JOINT LeftUpLeg
		{
			OFFSET 8.479700 -4.795502 -0.379100
			CHANNELS 3 Xrotation Yrotation Zrotation
			JOINT LeftLeg
			{
				OFFSET 0.024144 -32.555107 0.112900
				CHANNELS 3 Xrotation Yrotation Zrotation
				JOINT LeftFoot
				{
					OFFSET -0.024144 -32.638630 -3.012600
					CHANNELS 3 Xrotation Yrotation Zrotation
					JOINT LeftToeBase
					{
						OFFSET 0.970200 -13.225400 11.864200
						CHANNELS 3 Xrotation Yrotation Zrotation
						End Site
						{
							OFFSET 0.000000 12.319262 0.000000
						}
					}
					JOINT LFootTongue
					{
						OFFSET 1.142400 -1.059800 6.665200
						CHANNELS 3 Xrotation Yrotation Zrotation
						End Site
						{
							OFFSET 0.000000 12.319262 0.000000
						}
					}
				}
				JOINT LeftPantLeg
				{
					OFFSET 0.918482 -16.533964 -2.284700
					CHANNELS 3 Xrotation Yrotation Zrotation
					End Site
					{
						OFFSET 0.350399 24.744368 0.000000
					}
				}
			}
		}
		JOINT RightUpLeg
		{
			OFFSET -8.479700 -4.795502 -0.379100
			CHANNELS 3 Xrotation Yrotation Zrotation
			JOINT RightLeg
			{
				OFFSET -0.023144 -32.555092 0.112900
				CHANNELS 3 Xrotation Yrotation Zrotation
				JOINT RightFoot
				{
					OFFSET 0.023144 -32.638641 -3.012700
					CHANNELS 3 Xrotation Yrotation Zrotation
					JOINT RightToeBase
					{
						OFFSET -0.970200 -13.225400 11.864200
						CHANNELS 3 Xrotation Yrotation Zrotation
						End Site
						{
							OFFSET 0.000000 12.319244 0.000000
						}
					}
					JOINT RFootTongue
					{
						OFFSET -1.142200 -1.059800 6.665200
						CHANNELS 3 Xrotation Yrotation Zrotation
						End Site
						{
							OFFSET 0.000000 12.319243 0.000000
						}
					}
				}
				JOINT RightPantLeg
				{
					OFFSET -0.919482 -16.533978 -2.284800
					CHANNELS 3 Xrotation Yrotation Zrotation
					End Site
					{
						OFFSET -0.350400 24.744419 0.000000
					}
				}
			}
		}
	}
	JOINT Spine
	{
		OFFSET 0.000000 7.722000 1.166200
		CHANNELS 3 Xrotation Yrotation Zrotation
		JOINT Spine1
		{
			OFFSET 0.000000 12.024101 0.248800
			CHANNELS 3 Xrotation Yrotation Zrotation
			JOINT Spine2
			{
				OFFSET 0.000000 11.502998 -0.491200
				CHANNELS 3 Xrotation Yrotation Zrotation
				JOINT Neck
				{
					OFFSET 0.000000 18.430702 -3.123100
					CHANNELS 3 Xrotation Yrotation Zrotation
					JOINT Head
					{
						OFFSET 0.000000 9.051102 1.034000
						CHANNELS 3 Xrotation Yrotation Zrotation
						JOINT HairB
						{
							OFFSET 0.208400 24.786102 24.822300
							CHANNELS 3 Xrotation Yrotation Zrotation
							End Site
							{
								OFFSET 0.000000 32.263779 0.000000
							}
						}
						JOINT HairA
						{
							OFFSET -7.081100 24.428299 23.196600
							CHANNELS 3 Xrotation Yrotation Zrotation
							End Site
							{
								OFFSET 0.000000 32.263779 0.000000
							}
						}
						JOINT Hat
						{
							OFFSET 16.728800 15.048294 -15.439601
							CHANNELS 3 Xrotation Yrotation Zrotation
							End Site
							{
								OFFSET 0.000000 32.263779 0.000000
							}
						}
					}
				}
				JOINT LeftShoulder
				{
					OFFSET 6.197800 13.665199 -4.064700
					CHANNELS 3 Xrotation Yrotation Zrotation
					JOINT LeftArm
					{
						OFFSET 7.778100 -0.187103 -1.709300
						CHANNELS 3 Xrotation Yrotation Zrotation
						JOINT LeftForeArm
						{
							OFFSET 22.049376 0.000000 0.000000
							CHANNELS 3 Xrotation Yrotation Zrotation
							JOINT LeftHand
							{
								OFFSET 23.009392 0.000000 0.000000
								CHANNELS 3 Xrotation Yrotation Zrotation
								JOINT LeftHandThumb1
								{
									OFFSET 3.507191 -2.063065 3.133727
									CHANNELS 3 Xrotation Yrotation Zrotation
									JOINT LeftHandThumb2
									{
										OFFSET 3.101337 -1.790558 1.790558
										CHANNELS 3 Xrotation Yrotation Zrotation
										JOINT LeftHandThumb3
										{
											OFFSET 3.058640 -1.765907 1.765906
											CHANNELS 3 Xrotation Yrotation Zrotation
											End Site
											{
												OFFSET -0.415260 3.926476 -0.049563
											}
										}
									}
								}
								JOINT LeftHandIndex1
								{
									OFFSET 11.334419 -0.901459 3.706815
									CHANNELS 3 Xrotation Yrotation Zrotation
									JOINT LeftHandIndex2
									{
										OFFSET 3.283112 0.000000 0.000000
										CHANNELS 3 Xrotation Yrotation Zrotation
										JOINT LeftHandIndex3
										{
											OFFSET 3.323853 0.000000 0.000000
											CHANNELS 3 Xrotation Yrotation Zrotation
											End Site
											{
												OFFSET -1.135597 3.097809 0.402452
											}
										}
									}
								}
								JOINT LeftHandMiddle1
								{
									OFFSET 11.335861 0.000000 0.000000
									CHANNELS 3 Xrotation Yrotation Zrotation
									JOINT LeftHandMiddle2
									{
										OFFSET 3.410492 0.000000 0.000000
										CHANNELS 3 Xrotation Yrotation Zrotation
										JOINT LeftHandMiddle3
										{
											OFFSET 3.312172 0.000000 0.000000
											CHANNELS 3 Xrotation Yrotation Zrotation
											End Site
											{
												OFFSET -1.150200 3.080154 0.400270
											}
										}
									}
								}
								JOINT LeftHandRing1
								{
									OFFSET 11.514786 -0.013176 -3.003090
									CHANNELS 3 Xrotation Yrotation Zrotation
									JOINT LeftHandRing2
									{
										OFFSET 3.053307 0.000000 0.000000
										CHANNELS 3 Xrotation Yrotation Zrotation
										JOINT LeftHandRing3
										{
											OFFSET 3.295807 0.000000 0.000000
											CHANNELS 3 Xrotation Yrotation Zrotation
											End Site
											{
												OFFSET -1.281006 3.013344 0.375733
											}
										}
									}
								}
								JOINT LeftHandPinky1
								{
									OFFSET 10.518692 -0.960396 -5.730441
									CHANNELS 3 Xrotation Yrotation Zrotation
									JOINT LeftHandPinky2
									{
										OFFSET 2.861649 0.000000 0.000000
										CHANNELS 3 Xrotation Yrotation Zrotation
										JOINT LeftHandPinky3
										{
											OFFSET 2.863380 0.000000 0.000000
											CHANNELS 3 Xrotation Yrotation Zrotation
											End Site
											{
												OFFSET -0.843597 2.711159 0.369971
											}
										}
									}
								}
							}
							JOINT LSleeve
							{
								OFFSET 6.676277 -0.344902 -1.011730
								CHANNELS 3 Xrotation Yrotation Zrotation
								End Site
								{
									OFFSET 0.000000 14.885353 0.000000
								}
							}
						}
					}
				}
				JOINT RightShoulder
				{
					OFFSET -6.197800 13.665199 -4.064700
					CHANNELS 3 Xrotation Yrotation Zrotation
					JOINT RightArm
					{
						OFFSET -7.778100 -0.187103 -1.709300
						CHANNELS 3 Xrotation Yrotation Zrotation
						JOINT RightForeArm
						{
							OFFSET -22.049376 0.000000 0.000000
							CHANNELS 3 Xrotation Yrotation Zrotation
							JOINT RightHand
							{
								OFFSET -23.009392 0.000000 0.000000
								CHANNELS 3 Xrotation Yrotation Zrotation
								JOINT RightHandThumb1
								{
									OFFSET -3.507191 -2.063065 3.133727
									CHANNELS 3 Xrotation Yrotation Zrotation
									JOINT RightHandThumb2
									{
										OFFSET -3.101337 -1.790558 1.790558
										CHANNELS 3 Xrotation Yrotation Zrotation
										JOINT RightHandThumb3
										{
											OFFSET -3.058640 -1.765907 1.765906
											CHANNELS 3 Xrotation Yrotation Zrotation
											End Site
											{
												OFFSET 0.415260 3.926476 -0.049563
											}
										}
									}
								}
								JOINT RightHandIndex1
								{
									OFFSET -11.334419 -0.901459 3.706815
									CHANNELS 3 Xrotation Yrotation Zrotation
									JOINT RightHandIndex2
									{
										OFFSET -3.283112 0.000000 0.000000
										CHANNELS 3 Xrotation Yrotation Zrotation
										JOINT RightHandIndex3
										{
											OFFSET -3.323853 0.000000 0.000000
											CHANNELS 3 Xrotation Yrotation Zrotation
											End Site
											{
												OFFSET 1.135597 3.097809 0.402452
											}
										}
									}
								}
								JOINT RightHandMiddle1
								{
									OFFSET -11.335861 0.000000 0.000000
									CHANNELS 3 Xrotation Yrotation Zrotation
									JOINT RightHandMiddle2
									{
										OFFSET -3.410492 0.000000 0.000000
										CHANNELS 3 Xrotation Yrotation Zrotation
										JOINT RightHandMiddle3
										{
											OFFSET -3.312172 0.000000 0.000000
											CHANNELS 3 Xrotation Yrotation Zrotation
											End Site
											{
												OFFSET 1.150200 3.080154 0.400270
											}
										}
									}
								}
								JOINT RightHandRing1
								{
									OFFSET -11.514786 -0.013176 -3.003090
									CHANNELS 3 Xrotation Yrotation Zrotation
									JOINT RightHandRing2
									{
										OFFSET -3.053307 0.000000 0.000000
										CHANNELS 3 Xrotation Yrotation Zrotation
										JOINT RightHandRing3
										{
											OFFSET -3.295807 0.000000 0.000000
											CHANNELS 3 Xrotation Yrotation Zrotation
											End Site
											{
												OFFSET 1.281006 3.013344 0.375733
											}
										}
									}
								}
								JOINT RightHandPinky1
								{
									OFFSET -10.518692 -0.960396 -5.730441
									CHANNELS 3 Xrotation Yrotation Zrotation
									JOINT RightHandPinky2
									{
										OFFSET -2.861649 0.000000 0.000000
										CHANNELS 3 Xrotation Yrotation Zrotation
										JOINT RightHandPinky3
										{
											OFFSET -2.863380 0.000000 0.000000
											CHANNELS 3 Xrotation Yrotation Zrotation
											End Site
											{
												OFFSET 0.843597 2.711159 0.369971
											}
										}
									}
								}
							}
							JOINT RSleeve
							{
								OFFSET -6.676277 -0.344902 -1.011730
								CHANNELS 3 Xrotation Yrotation Zrotation
								End Site
								{
									OFFSET 0.000000 14.885353 0.000000
								}
							}
						}
					}
				}
				JOINT Backpack
				{
					OFFSET 0.000000 -2.471497 36.677502
					CHANNELS 3 Xrotation Yrotation Zrotation
					End Site
					{
						OFFSET 0.000000 20.427315 0.000000
					}
				}
				JOINT Hood
				{
					OFFSET 0.000000 18.754097 -10.431000
					CHANNELS 3 Xrotation Yrotation Zrotation
					JOINT Hood1
					{
						OFFSET 0.000000 -5.011002 -7.685901
						CHANNELS 3 Xrotation Yrotation Zrotation
						End Site
						{
							OFFSET 0.000000 9.175140 0.000000
						}
					}
				}
				JOINT LHoodieString
				{
					OFFSET 5.250500 16.397697 3.089900
					CHANNELS 3 Xrotation Yrotation Zrotation
					JOINT LHoodieString1
					{
						OFFSET 0.257700 -6.364304 3.694600
						CHANNELS 3 Xrotation Yrotation Zrotation
						JOINT LHoodieString2
						{
							OFFSET 0.000000 -9.643799 2.679100
							CHANNELS 3 Xrotation Yrotation Zrotation
							End Site
							{
								OFFSET 0.000000 10.009018 0.000000
							}
						}
					}
				}
				JOINT RHoodieString
				{
					OFFSET -5.250500 16.397697 3.089900
					CHANNELS 3 Xrotation Yrotation Zrotation
					JOINT RHoodieString1
					{
						OFFSET -0.257700 -6.364304 3.694600
						CHANNELS 3 Xrotation Yrotation Zrotation
						JOINT RHoodieString2
						{
							OFFSET 0.000000 -9.643799 2.679100
							CHANNELS 3 Xrotation Yrotation Zrotation
							End Site
							{
								OFFSET 0.000000 10.009018 0.000000
							}
						}
					}
				}
			}
			JOINT LBackpack_Strap
			{
				OFFSET 15.223200 -7.719803 -6.610900
				CHANNELS 3 Xrotation Yrotation Zrotation
				End Site
				{
					OFFSET 0.000000 16.040596 0.000000
				}
			}
			JOINT RBackpack_Strap
			{
				OFFSET -15.223000 -7.719803 -6.610900
				CHANNELS 3 Xrotation Yrotation Zrotation
				End Site
				{
					OFFSET 0.000000 16.040596 0.000000
				}
			}
		}
	}
	JOINT BoyFacialAnim_Joint
	{
		OFFSET 1.000000 -82.208099 -1.550900
		CHANNELS 3 Xrotation Yrotation Zrotation
		End Site
		{
			OFFSET 0.000000 30.012791 0.000000
		}
	}
}
MOTION
Frames: 4
Frame Time: 0.033333
-0.047652 46.756676 -31.639772 -18.074301 -2.391590 0.355590 -0.000000 0.000000 -0.000000 -76.861184 0.133230 10.029619 102.043805 7.602254 2.560227 -6.433423 8.644322 -3.585988 0.000000 0.000002 -0.000000 0.000000 0.000002 -0.000000 0.000000 0.000001 -0.000000 -76.889236 4.839207 -9.404120 100.854396 -5.872819 -4.693051 -4.298491 -5.417093 8.124938 0.000000 0.000000 0.000000 0.000000 0.000000 0.000000 -0.000001 0.000001 -0.000000 3.549901 -0.245908 -2.298385 15.566269 -0.967843 -1.312255 15.552711 -0.932454 -1.560524 -9.502297 -0.037404 1.380190 -5.047404 1.688139 4.083893 -0.000000 -0.000000 -0.000000 -0.000000 -0.000000 -0.000000 -0.000000 -0.000000 -0.000000 0.420263 8.586836 -11.782643 -25.640201 -42.029911 -76.954669 0.009405 -92.185397 0.009408 4.298171 -7.462467 28.091631 0.043062 3.210884 -2.318975 -7.059601 7.294304 13.761858 -0.000000 0.000001 -0.000001 -0.000014 0.000007 0.000014 0.000019 0.000000 -0.000063 -0.000001 0.000003 -0.000003 0.000000 -0.001909 0.016003 -0.000008 0.001918 -0.016062 0.000002 -0.000004 -0.000002 -0.000003 0.000014 0.000019 0.000005 -0.000005 -0.000057 0.000000 0.000002 -0.000002 -0.018088 4.054264 0.511068 -0.018084 -4.054249 -0.511112 -0.000000 0.000001 -0.000000 0.000000 -0.000001 0.000004 0.776561 -0.561259 10.187131 -30.579256 21.700804 77.532319 -0.000190 83.348887 0.000179 -19.607982 24.581294 8.694547 -21.141112 -11.985584 -22.103749 4.637207 -8.634132 -0.225408 -0.000003 0.000001 0.000001 0.064601 0.947619 -7.800556 0.000017 0.000007 0.000050 -0.000001 0.000004 0.000002 0.064601 0.947611 -7.800569 0.000016 0.000013 0.000048 0.000002 -0.000001 -0.000001 0.064603 0.947612 -7.800546 0.000008 0.000001 0.000037 0.000001 0.000000 0.000002 0.064597 0.947617 -7.800559 0.000009 0.000004 0.000039 0.000001 -0.000001 0.000000 0.000001 -0.000000 0.000000 0.000001 0.000000 0.000000 0.000001 0.000000 0.000000 0.000001 0.000000 0.000000 0.000001 0.000000 0.000000 0.000001 0.000000 -0.000000 -0.000001 0.000000 -0.000000 0.000001 0.000000 0.000000 0.000001 0.000000 -0.000000 -0.000001 0.000000 -0.000000 -0.000000 0.000001 0.000000 -0.000000 0.000001 0.000000 -0.000000 0.000000 -0.000000 
-0.047560 46.764610 -31.645390 -18.139649 -2.375201 0.353526 0.000002 0.000000 -0.000000 -76.777064 0.112004 10.007834 102.027617 7.591234 2.558471 -6.430886 8.591036 -3.603784 -0.000000 -0.000000 -0.000000 -0.000000 -0.000000 -0.000000 0.000000 -0.000002 0.000000 -76.816303 4.750466 -9.395385 100.833946 -5.861697 -4.788974 -4.299711 -5.476156 8.140348 -0.000000 0.000000 -0.000000 -0.000000 0.000000 -0.000000 0.000000 0.000002 0.000002 3.477298 -0.305395 -2.325795 15.476582 -1.113103 -1.288625 15.462611 -1.077788 -1.534925 -9.265228 0.005271 1.289877 -4.690823 1.733497 4.091185 0.000000 -0.000000 0.000000 0.000000 -0.000000 0.000000 0.000000 -0.000000 0.000000 0.419340 8.527821 -11.748920 -26.640178 -37.616078 -78.005719 0.006835 -90.461737 0.006926 17.017710 -0.453956 24.536573 0.043061 3.210882 -2.318974 -7.059602 7.294306 13.761857 0.000001 -0.000000 -0.000001 -0.000013 0.000007 0.000014 0.000021 -0.000001 -0.000061 -0.000000 -0.000003 -0.000002 -0.000001 -0.001912 0.016001 -0.000007 0.001922 -0.016059 0.000002 0.000000 0.000000 -0.000002 0.000013 0.000019 0.000006 -0.000002 -0.000059 0.000000 0.000003 -0.000007 -0.018089 4.054265 0.511067 -0.018084 -4.054250 -0.511118 -0.000000 0.000003 -0.000001 -0.000000 0.000001 0.000004 0.784022 -0.636061 10.357934 -31.100604 17.588656 78.220460 0.000777 82.842456 -0.000786 -23.757691 24.521764 12.263530 -21.141107 -11.985579 -22.103747 4.637206 -8.634138 -0.225408 -0.000001 -0.000000 -0.000000 0.064600 0.947617 -7.800556 0.000015 0.000003 0.000050 0.000000 -0.000000 0.000003 0.064603 0.947611 -7.800563 0.000015 0.000010 0.000044 0.000000 0.000006 -0.000001 0.064605 0.947611 -7.800544 0.000006 0.000008 0.000039 -0.000000 0.000003 -0.000001 0.064596 0.947613 -7.800554 0.000009 0.000002 0.000042 0.000000 -0.000002 -0.000000 0.000000 -0.000001 -0.000001 0.000001 -0.000000 -0.000000 0.000001 -0.000000 -0.000000 0.000001 -0.000000 -0.000000 0.000001 -0.000000 -0.000000 0.000001 -0.000000 -0.000000 -0.000001 0.000000 -0.000000 0.000001 -0.000000 -0.000000 0.000001 -0.000000 -0.000000 -0.000001 0.000000 -0.000000 0.000000 -0.000000 0.000000 0.000000 -0.000000 0.000000 0.000002 0.000000 -0.000000 
-0.047579 46.766937 -31.651224 -18.204752 -2.353543 0.353898 0.000000 0.000000 -0.000000 -76.700231 0.077782 9.943249 102.019107 7.548121 2.562692 -6.417204 8.623048 -3.640150 0.000000 -0.000000 -0.000000 0.000000 -0.000000 -0.000000 -0.000001 0.000002 0.000000 -76.748630 4.744142 -9.494206 100.832081 -5.917823 -4.735508 -4.313151 -5.375066 8.078740 -0.000000 0.000002 0.000000 -0.000000 0.000002 0.000000 -0.000000 -0.000001 0.000001 3.471404 -0.335282 -2.280026 15.463562 -1.165583 -1.230716 15.448411 -1.129173 -1.476626 -9.407889 0.050100 1.236288 -4.598609 1.888941 4.048889 0.000000 0.000000 0.000000 0.000000 0.000000 0.000000 0.000000 0.000000 0.000000 0.418931 8.466269 -11.685100 -27.260062 -35.547487 -79.149899 0.024009 -89.567938 0.024031 25.866374 1.887789 21.089257 0.043062 3.210880 -2.318975 -7.059599 7.294307 13.761856 -0.000002 -0.000000 0.000001 -0.000015 0.000006 0.000013 0.000018 0.000001 -0.000061 -0.000000 0.000003 -0.000005 0.000005 -0.001913 0.016001 -0.000010 0.001918 -0.016060 0.000001 -0.000001 -0.000002 -0.000003 0.000013 0.000019 0.000007 -0.000006 -0.000061 0.000001 -0.000001 -0.000002 -0.018083 4.054262 0.511064 -0.018085 -4.054250 -0.511114 -0.000001 0.000001 0.000002 -0.000001 0.000000 -0.000000 0.792156 -0.736366 10.572311 -31.174756 17.494478 78.505204 -0.000045 82.928605 0.000042 -23.705070 24.637368 12.143740 -21.141111 -11.985581 -22.103745 4.637209 -8.634133 -0.225408 -0.000000 0.000000 -0.000000 0.064600 0.947616 -7.800555 0.000017 0.000010 0.000052 0.000001 -0.000004 0.000003 0.064600 0.947607 -7.800564 0.000014 0.000013 0.000046 -0.000001 0.000001 -0.000004 0.064604 0.947618 -7.800547 0.000009 0.000005 0.000040 -0.000003 0.000002 0.000001 0.064594 0.947610 -7.800558 0.000009 0.000007 0.000040 -0.000001 -0.000004 -0.000000 0.000000 -0.000001 -0.000000 0.000001 0.000000 -0.000000 0.000001 0.000000 -0.000000 0.000001 0.000000 -0.000000 0.000001 0.000000 -0.000000 0.000001 0.000000 0.000000 -0.000000 0.000000 0.000000 0.000001 0.000000 -0.000000 0.000001 0.000000 0.000000 -0.000000 0.000000 0.000000 -0.000000 -0.000000 0.000000 -0.000000 -0.000000 0.000000 0.000000 0.000000 -0.000000 
-0.046701 46.763878 -31.657558 -18.260675 -2.330176 0.358016 -0.000001 0.000000 0.000000 -76.668429 0.153335 9.933564 102.008718 7.598451 2.566081 -6.403700 8.820180 -3.569853 0.000000 -0.000002 -0.000000 0.000000 -0.000002 0.000000 -0.000000 0.000001 0.000000 -76.699036 4.767852 -9.644439 100.838741 -6.016990 -4.635476 -4.334066 -5.146309 7.992423 -0.000000 0.000000 0.000000 -0.000000 0.000000 0.000000 -0.000000 0.000002 -0.000000 3.570693 -0.309295 -2.189107 15.597685 -1.071502 -1.182566 15.581420 -1.033397 -1.429202 -9.973267 0.051295 1.276480 -5.030137 2.006319 4.122210 0.000000 0.000000 -0.000000 0.000000 0.000000 -0.000000 0.000000 0.000000 -0.000000 0.415621 8.405964 -11.523943 -27.226932 -37.489430 -79.371490 -0.173909 -90.040191 -0.175424 27.054415 -2.010859 22.826110 0.043062 3.210879 -2.318975 -7.059603 7.294302 13.761854 0.000000 -0.000002 -0.000000 -0.000015 -0.000001 0.000018 0.000022 -0.000001 -0.000065 -0.000000 0.000003 -0.000003 0.000001 -0.001916 0.016004 -0.000008 0.001924 -0.016064 0.000001 -0.000001 0.000000 -0.000001 0.000009 0.000017 0.000005 -0.000004 -0.000060 -0.000001 0.000005 -0.000005 -0.018087 4.054259 0.511069 -0.018086 -4.054250 -0.511113 0.000001 0.000004 0.000002 -0.000001 0.000000 0.000002 0.790450 -0.938599 10.737027 -30.503679 23.013470 78.410053 -0.000362 84.026906 0.000347 -18.987327 25.227761 5.628501 -21.141114 -11.985579 -22.103747 4.637203 -8.634136 -0.225408 -0.000003 -0.000001 -0.000001 0.064600 0.947611 -7.800558 0.000016 0.000005 0.000053 -0.000001 0.000001 0.000002 0.064602 0.947606 -7.800564 0.000018 0.000013 0.000046 0.000002 0.000003 0.000000 0.064604 0.947617 -7.800550 0.000010 0.000005 0.000040 -0.000001 0.000003 -0.000001 0.064595 0.947613 -7.800560 0.000010 0.000003 0.000039 0.000001 -0.000002 -0.000002 -0.000000 -0.000001 0.000000 0.000001 -0.000000 0.000000 0.000001 -0.000000 0.000000 0.000001 -0.000000 0.000000 0.000001 -0.000000 0.000000 0.000001 -0.000000 0.000000 -0.000001 -0.000000 -0.000000 0.000001 -0.000000 0.000000 0.000001 -0.000000 0.000000 -0.000001 -0.000000 -0.000000 0.000000 0.000000 0.000000 0.000000 0.000000 0.000000 -0.000001 0.000000 0.000000 
